HIERARCHY
ROOT Hips
{
	OFFSET 0.000000 0.000000 0.000000
	CHANNELS 6 Xposition Yposition Zposition Xrotation Yrotation Zrotation
	JOINT Chest
	{
		OFFSET 0.000000 0.009282 11.569106
		CHANNELS 3 Xrotation Yrotation Zrotation
		JOINT Chest2
		{
			OFFSET 0.000000 -0.016863 9.269641
			CHANNELS 3 Xrotation Yrotation Zrotation
			JOINT Chest3
			{
				OFFSET 0.000000 0.000000 8.374491
				CHANNELS 3 Xrotation Yrotation Zrotation
				JOINT Chest4
				{
					OFFSET 0.000000 0.000000 8.374493
					CHANNELS 3 Xrotation Yrotation Zrotation
					JOINT Neck
					{
						OFFSET 0.000000 -0.000001 12.152554
						CHANNELS 3 Xrotation Yrotation Zrotation
						JOINT Head
						{
							OFFSET 0.000000 -0.040100 7.802319
							CHANNELS 3 Xrotation Yrotation Zrotation
							End Site
							{
								OFFSET 0.000000 -0.020946 14.853096
							}
						}
					}
					JOINT RightCollar
					{
						OFFSET -2.894404 0.000000 6.791374
						CHANNELS 3 Xrotation Yrotation Zrotation
						JOINT RightShoulder
						{
							OFFSET -13.574684 0.000000 0.000000
							CHANNELS 3 Xrotation Yrotation Zrotation
							JOINT RightElbow
							{
								OFFSET -23.923903 0.000000 0.000000
								CHANNELS 3 Xrotation Yrotation Zrotation
								JOINT RightWrist
								{
									OFFSET -19.846718 -0.012765 0.000000
									CHANNELS 3 Xrotation Yrotation Zrotation
									End Site
									{
										OFFSET -14.973145 0.000000 0.000000
									}
								}
							}
						}
					}
					JOINT LeftCollar
					{
						OFFSET 2.894404 0.000000 6.791374
						CHANNELS 3 Xrotation Yrotation Zrotation
						JOINT LeftShoulder
						{
							OFFSET 13.574684 0.000000 0.000000
							CHANNELS 3 Xrotation Yrotation Zrotation
							JOINT LeftElbow
							{
								OFFSET 23.923903 0.000000 0.000000
								CHANNELS 3 Xrotation Yrotation Zrotation
								JOINT LeftWrist
								{
									OFFSET 19.846718 -0.012765 0.000000
									CHANNELS 3 Xrotation Yrotation Zrotation
									End Site
									{
										OFFSET 14.973145 0.000000 0.000000
									}
								}
							}
						}
					}
				}
			}
		}
	}
	JOINT RightHip
	{
		OFFSET -9.469263 -0.004642 0.045487
		CHANNELS 3 Xrotation Yrotation Zrotation
		JOINT RightKnee
		{
			OFFSET 0.000000 -0.002666 -40.478676
			CHANNELS 3 Xrotation Yrotation Zrotation
			JOINT RightAnkle
			{
				OFFSET 0.000000 -0.049110 -35.224068
				CHANNELS 3 Xrotation Yrotation Zrotation
				JOINT RightToe
				{
					OFFSET 0.000000 -12.539530 -6.151390
					CHANNELS 3 Xrotation Yrotation Zrotation
					End Site
					{
						OFFSET 0.000000 -5.044995 -1.291870
					}
				}
			}
		}
	}
	JOINT LeftHip
	{
		OFFSET 9.469263 -0.004642 0.045487
		CHANNELS 3 Xrotation Yrotation Zrotation
		JOINT LeftKnee
		{
			OFFSET 0.000000 -0.002666 -40.478676
			CHANNELS 3 Xrotation Yrotation Zrotation
			JOINT LeftAnkle
			{
				OFFSET 0.000000 -0.049110 -35.224068
				CHANNELS 3 Xrotation Yrotation Zrotation
				JOINT LeftToe
				{
					OFFSET 0.000000 -12.539530 -6.151390
					CHANNELS 3 Xrotation Yrotation Zrotation
					End Site
					{
						OFFSET 0.000000 -5.044995 -1.291870
					}
				}
			}
		}
	}
}
MOTION
Frames: 6
Frame Time: 0.016667
-71.121712 -23.618870 79.088066 -3.068970 2.943507 251.913195 6.203194 1.996514 -0.859671 2.389752 1.053891 0.070761 2.389751 1.053890 0.070760 1.792385 0.790156 0.057188 22.371035 -2.006152 -2.204585 5.318944 -3.069698 -4.588384 -7.291863 -9.252605 -1.676053 20.001874 -41.026884 -3.193481 68.028110 16.234738 67.372644 -55.211527 44.469606 82.857407 -3.696920 9.614646 -4.083301 17.478116 37.334473 11.783633 62.982363 -11.297794 -67.163900 -28.271388 -31.595738 -85.653304 -17.159348 7.903601 -15.614586 66.767087 -9.463277 1.451987 32.361255 -15.035195 12.304105 1.334232 0.925465 -1.486966 -16.791878 8.637525 10.550945 28.593912 6.975810 13.709364 -11.754651 -10.407286 12.508115 -0.132224 0.013720 -0.105883 
-71.080406 -23.597925 79.214439 -2.946925 2.879868 251.770390 6.178244 1.890774 -0.823903 2.387751 1.045904 0.067927 2.387749 1.045903 0.067921 1.790872 0.784177 0.055037 22.410143 -2.034920 -2.226438 5.390351 -3.117655 -4.635334 -7.340511 -9.288220 -1.675079 19.999636 -40.993767 -3.240110 67.999649 16.226622 67.393709 -55.217718 44.452900 82.854443 -3.728097 9.602321 -4.077897 17.473878 37.384521 11.789993 62.975669 -11.296826 -67.116642 -28.290895 -31.572447 -85.652150 -16.891068 7.742840 -15.851882 66.225794 -9.435671 1.323673 32.241485 -14.688631 12.408273 1.283529 0.835680 -1.425697 -16.619892 8.501616 10.553805 28.111809 6.934311 13.662519 -11.439447 -10.375197 12.699972 -0.159832 -0.013138 -0.103082 
-71.051796 -23.582464 79.359451 -2.832905 2.808218 251.630344 6.160176 1.803795 -0.788945 2.387126 1.036879 0.070051 2.387123 1.036879 0.070050 1.790409 0.777399 0.056586 22.448259 -2.079482 -2.257759 5.459332 -3.191934 -4.703977 -7.384500 -9.310459 -1.690299 19.969742 -40.978137 -3.297065 67.979999 16.229788 67.417765 -55.216332 44.437364 82.840550 -3.763424 9.575170 -4.075461 17.491136 37.437380 11.763445 62.954803 -11.275474 -67.071016 -28.286416 -31.561932 -85.632698 -16.575747 7.582549 -16.116784 65.617805 -9.387228 1.162855 32.053951 -14.293323 12.581747 1.271023 0.764022 -1.387222 -16.418684 8.371107 10.522840 27.581376 6.881707 13.615942 -11.074554 -10.302045 12.666955 -0.206998 -0.048133 -0.104535 
-71.040482 -23.557995 79.524727 -2.695449 2.708814 251.483085 6.134502 1.698938 -0.748820 2.381553 1.024081 0.073399 2.381549 1.024081 0.073393 1.786240 0.767789 0.059035 22.491898 -2.137931 -2.296393 5.537896 -3.289869 -4.789638 -7.425064 -9.325744 -1.705300 19.927808 -40.943422 -3.362143 67.973182 16.222765 67.463254 -55.207869 44.423994 82.817915 -3.796054 9.560250 -4.085706 17.510838 37.486622 11.757293 62.917230 -11.240096 -67.032685 -28.254578 -31.565221 -85.598034 -16.222717 7.373625 -16.392305 64.925388 -9.320912 1.004059 31.834723 -13.947273 12.813577 -12.550584 9.558636 -2.249124 -16.204004 8.244693 10.470862 26.977673 6.800048 13.581820 -10.648548 -10.200208 12.784225 -0.268143 -0.092509 -0.103248 
-71.046051 -23.540903 79.712578 -2.560429 2.568001 251.314516 6.079071 1.595744 -0.693629 2.370263 1.007804 0.077294 2.370260 1.007803 0.077297 1.777776 0.755567 0.061882 22.542406 -2.204799 -2.343798 5.628782 -3.401114 -4.893413 -7.474197 -9.341671 -1.722955 19.916048 -40.895563 -3.409735 67.962527 16.204706 67.518121 -55.189783 44.418568 82.778081 -3.843866 9.560089 -4.083268 17.525637 37.530667 11.779081 62.879527 -11.230919 -66.995345 -28.219521 -31.553005 -85.546398 -15.861687 7.138548 -16.684395 64.135319 -9.231040 0.890756 31.617721 -13.566674 12.981506 -19.596028 14.835121 -2.243170 -15.972558 8.115137 10.427808 26.283533 6.698599 13.530997 -10.158619 -10.077479 12.979413 -0.340210 -0.132960 -0.103329 
-71.055756 -23.525133 79.921188 -2.400662 2.362416 251.101414 5.978699 1.461663 -0.596913 2.354394 0.988787 0.081344 2.354394 0.988787 0.081344 1.765888 0.741291 0.064819 22.597790 -2.284760 -2.396804 5.728053 -3.535055 -5.010820 -7.536002 -9.359454 -1.733012 19.931696 -40.832251 -3.460150 67.939127 16.180348 67.594380 -55.156605 44.412479 82.723153 -3.913269 9.561406 -4.056663 17.519908 37.590919 11.826313 62.862233 -11.244939 -66.940232 -28.181142 -31.522631 -85.488246 -15.529883 6.873615 -16.957606 63.268616 -9.183382 0.802364 31.506833 -13.238001 13.101409 -23.805639 18.431421 -2.155442 -15.752074 7.961882 10.372321 25.489175 6.578280 13.504192 -9.614545 -9.949253 13.236134 -0.403160 -0.167477 -0.097872 
